<svg width="130" height="109" viewBox="0 0 130 109" fill="none" xmlns="http://www.w3.org/2000/svg">
<path d="M66.8 2C70.7 2 74.6 2 78.5 2.1C78 22.6 93.3 42 113.2 46.6C116.9 47.8 120.9 47.6 124.8 48C124.8 51.9 124.8 55.8 124.8 59.6C117.3 60 109.7 61.1 103.1 64.9C88.3 72.7 78.4 88.8 78.4 105.6C74.5 105.6 70.6 105.6 66.8 105.6C66.7 87.7 75.5 70.1 90 59.5C61.2 59.6 32.3 59.5 3.5 59.5C3.6 55.7 3.6 51.8 3.5 47.9C32.2 48.2 61 48 89.8 48.1C79.7 40.1 71.6 29.2 68.6 16.6C67.4 11.9 66.9 6.9 66.8 2Z" fill="white"/>
</svg>
